<svg xmlns="http://www.w3.org/2000/svg" xmlns:xlink="http://www.w3.org/1999/xlink" width="500" zoomAndPan="magnify" viewBox="0 0 375 374.999991" height="500" preserveAspectRatio="xMidYMid meet" version="1.0"><defs><g/><clipPath id="734882eee1"><path d="M 74 96 L 303 96 L 303 287 L 74 287 Z M 74 96 " clip-rule="nonzero"/></clipPath><clipPath id="8e3ab240bb"><path d="M 272.792969 22.71875 L 356.71875 263.511719 L 102.46875 352.125 L 18.542969 111.332031 Z M 272.792969 22.71875 " clip-rule="nonzero"/></clipPath><clipPath id="9824435dd2"><path d="M 272.792969 22.71875 L 356.71875 263.511719 L 102.46875 352.125 L 18.542969 111.332031 Z M 272.792969 22.71875 " clip-rule="nonzero"/></clipPath><clipPath id="229bbe74cf"><path d="M 72 94 L 305 94 L 305 289 L 72 289 Z M 72 94 " clip-rule="nonzero"/></clipPath><clipPath id="0d49a5acdf"><path d="M 272.792969 22.71875 L 356.71875 263.511719 L 102.46875 352.125 L 18.542969 111.332031 Z M 272.792969 22.71875 " clip-rule="nonzero"/></clipPath><clipPath id="bac17be6c5"><path d="M 272.792969 22.71875 L 356.71875 263.511719 L 102.46875 352.125 L 18.542969 111.332031 Z M 272.792969 22.71875 " clip-rule="nonzero"/></clipPath><clipPath id="ccdef98e8c"><path d="M 74 99 L 303 99 L 303 145 L 74 145 Z M 74 99 " clip-rule="nonzero"/></clipPath><clipPath id="1b13cf1ada"><path d="M 272.792969 22.71875 L 356.71875 263.511719 L 102.46875 352.125 L 18.542969 111.332031 Z M 272.792969 22.71875 " clip-rule="nonzero"/></clipPath><clipPath id="d8ebacb9e8"><path d="M 272.792969 22.71875 L 356.71875 263.511719 L 102.46875 352.125 L 18.542969 111.332031 Z M 272.792969 22.71875 " clip-rule="nonzero"/></clipPath><clipPath id="68a95ce0ce"><path d="M 72 97 L 305 97 L 305 147 L 72 147 Z M 72 97 " clip-rule="nonzero"/></clipPath><clipPath id="e570d2d663"><path d="M 272.792969 22.71875 L 356.71875 263.511719 L 102.46875 352.125 L 18.542969 111.332031 Z M 272.792969 22.71875 " clip-rule="nonzero"/></clipPath><clipPath id="1536fe9daf"><path d="M 272.792969 22.71875 L 356.71875 263.511719 L 102.46875 352.125 L 18.542969 111.332031 Z M 272.792969 22.71875 " clip-rule="nonzero"/></clipPath><clipPath id="c50a59d312"><path d="M 74 96 L 303 96 L 303 141 L 74 141 Z M 74 96 " clip-rule="nonzero"/></clipPath><clipPath id="3bb72c4b52"><path d="M 272.792969 22.71875 L 356.71875 263.511719 L 102.46875 352.125 L 18.542969 111.332031 Z M 272.792969 22.71875 " clip-rule="nonzero"/></clipPath><clipPath id="3031e8e989"><path d="M 272.792969 22.71875 L 356.71875 263.511719 L 102.46875 352.125 L 18.542969 111.332031 Z M 272.792969 22.71875 " clip-rule="nonzero"/></clipPath><clipPath id="c7bd5c1c6a"><path d="M 72 94 L 305 94 L 305 143 L 72 143 Z M 72 94 " clip-rule="nonzero"/></clipPath><clipPath id="be5e5b1099"><path d="M 272.792969 22.71875 L 356.71875 263.511719 L 102.46875 352.125 L 18.542969 111.332031 Z M 272.792969 22.71875 " clip-rule="nonzero"/></clipPath><clipPath id="f2cc870bde"><path d="M 272.792969 22.71875 L 356.71875 263.511719 L 102.46875 352.125 L 18.542969 111.332031 Z M 272.792969 22.71875 " clip-rule="nonzero"/></clipPath><clipPath id="83ce62d881"><path d="M 266 86 L 280 86 L 280 122 L 266 122 Z M 266 86 " clip-rule="nonzero"/></clipPath><clipPath id="6ce462f169"><path d="M 272.792969 22.71875 L 356.71875 263.511719 L 102.46875 352.125 L 18.542969 111.332031 Z M 272.792969 22.71875 " clip-rule="nonzero"/></clipPath><clipPath id="d6cc3c2278"><path d="M 272.792969 22.71875 L 356.71875 263.511719 L 102.46875 352.125 L 18.542969 111.332031 Z M 272.792969 22.71875 " clip-rule="nonzero"/></clipPath><clipPath id="fe753c6fd2"><path d="M 264 84 L 282 84 L 282 124 L 264 124 Z M 264 84 " clip-rule="nonzero"/></clipPath><clipPath id="4c3de386ef"><path d="M 272.792969 22.71875 L 356.71875 263.511719 L 102.46875 352.125 L 18.542969 111.332031 Z M 272.792969 22.71875 " clip-rule="nonzero"/></clipPath><clipPath id="639a440834"><path d="M 272.792969 22.71875 L 356.71875 263.511719 L 102.46875 352.125 L 18.542969 111.332031 Z M 272.792969 22.71875 " clip-rule="nonzero"/></clipPath><clipPath id="ad6c13bf5c"><path d="M 238 86 L 252 86 L 252 122 L 238 122 Z M 238 86 " clip-rule="nonzero"/></clipPath><clipPath id="8f1ad9f212"><path d="M 272.792969 22.71875 L 356.71875 263.511719 L 102.46875 352.125 L 18.542969 111.332031 Z M 272.792969 22.71875 " clip-rule="nonzero"/></clipPath><clipPath id="0819ae44d8"><path d="M 272.792969 22.71875 L 356.71875 263.511719 L 102.46875 352.125 L 18.542969 111.332031 Z M 272.792969 22.71875 " clip-rule="nonzero"/></clipPath><clipPath id="5d30e402c1"><path d="M 236 84 L 254 84 L 254 124 L 236 124 Z M 236 84 " clip-rule="nonzero"/></clipPath><clipPath id="4c663b475c"><path d="M 272.792969 22.71875 L 356.71875 263.511719 L 102.46875 352.125 L 18.542969 111.332031 Z M 272.792969 22.71875 " clip-rule="nonzero"/></clipPath><clipPath id="4f4e9d2e86"><path d="M 272.792969 22.71875 L 356.71875 263.511719 L 102.46875 352.125 L 18.542969 111.332031 Z M 272.792969 22.71875 " clip-rule="nonzero"/></clipPath><clipPath id="884c7eca77"><path d="M 210 86 L 224 86 L 224 122 L 210 122 Z M 210 86 " clip-rule="nonzero"/></clipPath><clipPath id="967f7e9779"><path d="M 272.792969 22.71875 L 356.71875 263.511719 L 102.46875 352.125 L 18.542969 111.332031 Z M 272.792969 22.71875 " clip-rule="nonzero"/></clipPath><clipPath id="fd95ebb392"><path d="M 272.792969 22.71875 L 356.71875 263.511719 L 102.46875 352.125 L 18.542969 111.332031 Z M 272.792969 22.71875 " clip-rule="nonzero"/></clipPath><clipPath id="dce2e72a2c"><path d="M 208 84 L 226 84 L 226 124 L 208 124 Z M 208 84 " clip-rule="nonzero"/></clipPath><clipPath id="8bf6ca3157"><path d="M 272.792969 22.71875 L 356.71875 263.511719 L 102.46875 352.125 L 18.542969 111.332031 Z M 272.792969 22.71875 " clip-rule="nonzero"/></clipPath><clipPath id="55e660363a"><path d="M 272.792969 22.71875 L 356.71875 263.511719 L 102.46875 352.125 L 18.542969 111.332031 Z M 272.792969 22.71875 " clip-rule="nonzero"/></clipPath><clipPath id="8e9051410f"><path d="M 182 86 L 196 86 L 196 122 L 182 122 Z M 182 86 " clip-rule="nonzero"/></clipPath><clipPath id="38b8540edc"><path d="M 272.792969 22.71875 L 356.71875 263.511719 L 102.46875 352.125 L 18.542969 111.332031 Z M 272.792969 22.71875 " clip-rule="nonzero"/></clipPath><clipPath id="6130a02933"><path d="M 272.792969 22.71875 L 356.71875 263.511719 L 102.46875 352.125 L 18.542969 111.332031 Z M 272.792969 22.71875 " clip-rule="nonzero"/></clipPath><clipPath id="87d1bd7c23"><path d="M 180 84 L 198 84 L 198 124 L 180 124 Z M 180 84 " clip-rule="nonzero"/></clipPath><clipPath id="1de59f3b5e"><path d="M 272.792969 22.71875 L 356.71875 263.511719 L 102.46875 352.125 L 18.542969 111.332031 Z M 272.792969 22.71875 " clip-rule="nonzero"/></clipPath><clipPath id="fac472f4d4"><path d="M 272.792969 22.71875 L 356.71875 263.511719 L 102.46875 352.125 L 18.542969 111.332031 Z M 272.792969 22.71875 " clip-rule="nonzero"/></clipPath><clipPath id="4fe733f47d"><path d="M 154 86 L 168 86 L 168 122 L 154 122 Z M 154 86 " clip-rule="nonzero"/></clipPath><clipPath id="ad212d2a0c"><path d="M 272.792969 22.71875 L 356.71875 263.511719 L 102.46875 352.125 L 18.542969 111.332031 Z M 272.792969 22.71875 " clip-rule="nonzero"/></clipPath><clipPath id="36d05104c0"><path d="M 272.792969 22.71875 L 356.71875 263.511719 L 102.46875 352.125 L 18.542969 111.332031 Z M 272.792969 22.71875 " clip-rule="nonzero"/></clipPath><clipPath id="d426108ea1"><path d="M 152 84 L 170 84 L 170 124 L 152 124 Z M 152 84 " clip-rule="nonzero"/></clipPath><clipPath id="dc9a8fd449"><path d="M 272.792969 22.71875 L 356.71875 263.511719 L 102.46875 352.125 L 18.542969 111.332031 Z M 272.792969 22.71875 " clip-rule="nonzero"/></clipPath><clipPath id="074f5817b1"><path d="M 272.792969 22.71875 L 356.71875 263.511719 L 102.46875 352.125 L 18.542969 111.332031 Z M 272.792969 22.71875 " clip-rule="nonzero"/></clipPath><clipPath id="d0f6ff7f36"><path d="M 266 84 L 280 84 L 280 120 L 266 120 Z M 266 84 " clip-rule="nonzero"/></clipPath><clipPath id="d1007bfe24"><path d="M 272.792969 22.71875 L 356.71875 263.511719 L 102.46875 352.125 L 18.542969 111.332031 Z M 272.792969 22.71875 " clip-rule="nonzero"/></clipPath><clipPath id="ee71548f77"><path d="M 272.792969 22.71875 L 356.71875 263.511719 L 102.46875 352.125 L 18.542969 111.332031 Z M 272.792969 22.71875 " clip-rule="nonzero"/></clipPath><clipPath id="10c398ecbb"><path d="M 264 83 L 282 83 L 282 122 L 264 122 Z M 264 83 " clip-rule="nonzero"/></clipPath><clipPath id="331487f256"><path d="M 272.792969 22.71875 L 356.71875 263.511719 L 102.46875 352.125 L 18.542969 111.332031 Z M 272.792969 22.71875 " clip-rule="nonzero"/></clipPath><clipPath id="44c56c7265"><path d="M 272.792969 22.71875 L 356.71875 263.511719 L 102.46875 352.125 L 18.542969 111.332031 Z M 272.792969 22.71875 " clip-rule="nonzero"/></clipPath><clipPath id="e9cd97512e"><path d="M 238 84 L 252 84 L 252 120 L 238 120 Z M 238 84 " clip-rule="nonzero"/></clipPath><clipPath id="89bfad9f6b"><path d="M 272.792969 22.71875 L 356.71875 263.511719 L 102.46875 352.125 L 18.542969 111.332031 Z M 272.792969 22.71875 " clip-rule="nonzero"/></clipPath><clipPath id="623470e4d0"><path d="M 272.792969 22.71875 L 356.71875 263.511719 L 102.46875 352.125 L 18.542969 111.332031 Z M 272.792969 22.71875 " clip-rule="nonzero"/></clipPath><clipPath id="51f2b2f189"><path d="M 236 82 L 254 82 L 254 122 L 236 122 Z M 236 82 " clip-rule="nonzero"/></clipPath><clipPath id="6e42f66815"><path d="M 272.792969 22.71875 L 356.71875 263.511719 L 102.46875 352.125 L 18.542969 111.332031 Z M 272.792969 22.71875 " clip-rule="nonzero"/></clipPath><clipPath id="900555c6fd"><path d="M 272.792969 22.71875 L 356.71875 263.511719 L 102.46875 352.125 L 18.542969 111.332031 Z M 272.792969 22.71875 " clip-rule="nonzero"/></clipPath><clipPath id="3bb5802384"><path d="M 210 84 L 224 84 L 224 120 L 210 120 Z M 210 84 " clip-rule="nonzero"/></clipPath><clipPath id="3a51504a43"><path d="M 272.792969 22.71875 L 356.71875 263.511719 L 102.46875 352.125 L 18.542969 111.332031 Z M 272.792969 22.71875 " clip-rule="nonzero"/></clipPath><clipPath id="afe09978ec"><path d="M 272.792969 22.71875 L 356.71875 263.511719 L 102.46875 352.125 L 18.542969 111.332031 Z M 272.792969 22.71875 " clip-rule="nonzero"/></clipPath><clipPath id="415a6a71c0"><path d="M 208 82 L 226 82 L 226 122 L 208 122 Z M 208 82 " clip-rule="nonzero"/></clipPath><clipPath id="fe658c49ab"><path d="M 272.792969 22.71875 L 356.71875 263.511719 L 102.46875 352.125 L 18.542969 111.332031 Z M 272.792969 22.71875 " clip-rule="nonzero"/></clipPath><clipPath id="4ffd2d7134"><path d="M 272.792969 22.71875 L 356.71875 263.511719 L 102.46875 352.125 L 18.542969 111.332031 Z M 272.792969 22.71875 " clip-rule="nonzero"/></clipPath><clipPath id="61dd9558a3"><path d="M 182 84 L 196 84 L 196 120 L 182 120 Z M 182 84 " clip-rule="nonzero"/></clipPath><clipPath id="899d030934"><path d="M 272.792969 22.71875 L 356.71875 263.511719 L 102.46875 352.125 L 18.542969 111.332031 Z M 272.792969 22.71875 " clip-rule="nonzero"/></clipPath><clipPath id="5e18c3fb0c"><path d="M 272.792969 22.71875 L 356.71875 263.511719 L 102.46875 352.125 L 18.542969 111.332031 Z M 272.792969 22.71875 " clip-rule="nonzero"/></clipPath><clipPath id="94b12e6088"><path d="M 180 82 L 198 82 L 198 122 L 180 122 Z M 180 82 " clip-rule="nonzero"/></clipPath><clipPath id="1dda76840e"><path d="M 272.792969 22.71875 L 356.71875 263.511719 L 102.46875 352.125 L 18.542969 111.332031 Z M 272.792969 22.71875 " clip-rule="nonzero"/></clipPath><clipPath id="928b09b9af"><path d="M 272.792969 22.71875 L 356.71875 263.511719 L 102.46875 352.125 L 18.542969 111.332031 Z M 272.792969 22.71875 " clip-rule="nonzero"/></clipPath><clipPath id="9d688e9158"><path d="M 154 84 L 168 84 L 168 120 L 154 120 Z M 154 84 " clip-rule="nonzero"/></clipPath><clipPath id="7be8132964"><path d="M 272.792969 22.71875 L 356.71875 263.511719 L 102.46875 352.125 L 18.542969 111.332031 Z M 272.792969 22.71875 " clip-rule="nonzero"/></clipPath><clipPath id="c5a8a33a62"><path d="M 272.792969 22.71875 L 356.71875 263.511719 L 102.46875 352.125 L 18.542969 111.332031 Z M 272.792969 22.71875 " clip-rule="nonzero"/></clipPath><clipPath id="ac280665f0"><path d="M 152 82 L 170 82 L 170 122 L 152 122 Z M 152 82 " clip-rule="nonzero"/></clipPath><clipPath id="57eb48f789"><path d="M 272.792969 22.71875 L 356.71875 263.511719 L 102.46875 352.125 L 18.542969 111.332031 Z M 272.792969 22.71875 " clip-rule="nonzero"/></clipPath><clipPath id="c49c397288"><path d="M 272.792969 22.71875 L 356.71875 263.511719 L 102.46875 352.125 L 18.542969 111.332031 Z M 272.792969 22.71875 " clip-rule="nonzero"/></clipPath><clipPath id="23c3204aef"><path d="M 125 85 L 139 85 L 139 121 L 125 121 Z M 125 85 " clip-rule="nonzero"/></clipPath><clipPath id="8e8a064b5a"><path d="M 272.792969 22.71875 L 356.71875 263.511719 L 102.46875 352.125 L 18.542969 111.332031 Z M 272.792969 22.71875 " clip-rule="nonzero"/></clipPath><clipPath id="d909b9fa94"><path d="M 272.792969 22.71875 L 356.71875 263.511719 L 102.46875 352.125 L 18.542969 111.332031 Z M 272.792969 22.71875 " clip-rule="nonzero"/></clipPath><clipPath id="bdd4b2f958"><path d="M 123 83 L 141 83 L 141 123 L 123 123 Z M 123 83 " clip-rule="nonzero"/></clipPath><clipPath id="8ce550cfd3"><path d="M 272.792969 22.71875 L 356.71875 263.511719 L 102.46875 352.125 L 18.542969 111.332031 Z M 272.792969 22.71875 " clip-rule="nonzero"/></clipPath><clipPath id="a0be597c1e"><path d="M 272.792969 22.71875 L 356.71875 263.511719 L 102.46875 352.125 L 18.542969 111.332031 Z M 272.792969 22.71875 " clip-rule="nonzero"/></clipPath><clipPath id="355e350106"><path d="M 97 85 L 111 85 L 111 121 L 97 121 Z M 97 85 " clip-rule="nonzero"/></clipPath><clipPath id="b882f4dcf2"><path d="M 272.792969 22.71875 L 356.71875 263.511719 L 102.46875 352.125 L 18.542969 111.332031 Z M 272.792969 22.71875 " clip-rule="nonzero"/></clipPath><clipPath id="2a9166a0a8"><path d="M 272.792969 22.71875 L 356.71875 263.511719 L 102.46875 352.125 L 18.542969 111.332031 Z M 272.792969 22.71875 " clip-rule="nonzero"/></clipPath><clipPath id="d30f250793"><path d="M 95 83 L 113 83 L 113 123 L 95 123 Z M 95 83 " clip-rule="nonzero"/></clipPath><clipPath id="64b027597b"><path d="M 272.792969 22.71875 L 356.71875 263.511719 L 102.46875 352.125 L 18.542969 111.332031 Z M 272.792969 22.71875 " clip-rule="nonzero"/></clipPath><clipPath id="6733594705"><path d="M 272.792969 22.71875 L 356.71875 263.511719 L 102.46875 352.125 L 18.542969 111.332031 Z M 272.792969 22.71875 " clip-rule="nonzero"/></clipPath><clipPath id="6fe359a3c2"><path d="M 125 84 L 139 84 L 139 120 L 125 120 Z M 125 84 " clip-rule="nonzero"/></clipPath><clipPath id="ab04aef17c"><path d="M 272.792969 22.71875 L 356.71875 263.511719 L 102.46875 352.125 L 18.542969 111.332031 Z M 272.792969 22.71875 " clip-rule="nonzero"/></clipPath><clipPath id="e5879cf72a"><path d="M 272.792969 22.71875 L 356.71875 263.511719 L 102.46875 352.125 L 18.542969 111.332031 Z M 272.792969 22.71875 " clip-rule="nonzero"/></clipPath><clipPath id="40433bb703"><path d="M 123 82 L 141 82 L 141 122 L 123 122 Z M 123 82 " clip-rule="nonzero"/></clipPath><clipPath id="6a4dc6a2c2"><path d="M 272.792969 22.71875 L 356.71875 263.511719 L 102.46875 352.125 L 18.542969 111.332031 Z M 272.792969 22.71875 " clip-rule="nonzero"/></clipPath><clipPath id="59420f4ffe"><path d="M 272.792969 22.71875 L 356.71875 263.511719 L 102.46875 352.125 L 18.542969 111.332031 Z M 272.792969 22.71875 " clip-rule="nonzero"/></clipPath><clipPath id="95de607021"><path d="M 97 84 L 111 84 L 111 120 L 97 120 Z M 97 84 " clip-rule="nonzero"/></clipPath><clipPath id="0bd6efe163"><path d="M 272.792969 22.71875 L 356.71875 263.511719 L 102.46875 352.125 L 18.542969 111.332031 Z M 272.792969 22.71875 " clip-rule="nonzero"/></clipPath><clipPath id="7685c36b3f"><path d="M 272.792969 22.71875 L 356.71875 263.511719 L 102.46875 352.125 L 18.542969 111.332031 Z M 272.792969 22.71875 " clip-rule="nonzero"/></clipPath><clipPath id="e12402f632"><path d="M 95 82 L 113 82 L 113 122 L 95 122 Z M 95 82 " clip-rule="nonzero"/></clipPath><clipPath id="959fcc4340"><path d="M 272.792969 22.71875 L 356.71875 263.511719 L 102.46875 352.125 L 18.542969 111.332031 Z M 272.792969 22.71875 " clip-rule="nonzero"/></clipPath><clipPath id="d85eeb1fe4"><path d="M 272.792969 22.71875 L 356.71875 263.511719 L 102.46875 352.125 L 18.542969 111.332031 Z M 272.792969 22.71875 " clip-rule="nonzero"/></clipPath><clipPath id="1773b3326c"><path d="M 0.0390625 0 L 136.359375 0 L 136.359375 51 L 0.0390625 51 Z M 0.0390625 0 " clip-rule="nonzero"/></clipPath><clipPath id="a90c6ef341"><path d="M 0.0390625 12 L 29 12 L 29 37 L 0.0390625 37 Z M 0.0390625 12 " clip-rule="nonzero"/></clipPath><clipPath id="a4ab9f2aea"><rect x="0" width="137" y="0" height="51"/></clipPath><clipPath id="ad811c0b3f"><path d="M 101 39 L 135 39 L 135 53.28125 L 101 53.28125 Z M 101 39 " clip-rule="nonzero"/></clipPath><clipPath id="5c0257c64f"><rect x="0" width="137" y="0" height="54"/></clipPath></defs><g clip-path="url(#734882eee1)"><g clip-path="url(#8e3ab240bb)"><g clip-path="url(#9824435dd2)"><path fill="#004aad" d="M 74.847656 124.351562 C 74.855469 108.800781 87.46875 96.210938 103.019531 96.21875 L 274.667969 96.3125 C 290.21875 96.320312 302.816406 108.933594 302.808594 124.488281 L 302.730469 258.304688 C 302.722656 273.847656 290.105469 286.449219 274.554688 286.445312 L 102.914062 286.34375 C 87.355469 286.335938 74.761719 273.722656 74.769531 258.167969 L 74.847656 124.351562 " fill-opacity="1" fill-rule="nonzero"/></g></g></g><g clip-path="url(#229bbe74cf)"><g clip-path="url(#0d49a5acdf)"><g clip-path="url(#bac17be6c5)"><path fill="#ffffff" d="M 74.847656 124.351562 L 76.777344 124.355469 C 76.78125 118.617188 78.617188 113.332031 81.734375 109.019531 C 84.851562 104.710938 89.25 101.382812 94.363281 99.601562 C 97.070312 98.65625 99.980469 98.144531 103.019531 98.148438 L 274.667969 98.242188 C 280.402344 98.246094 285.6875 100.082031 290.003906 103.199219 C 294.3125 106.316406 297.644531 110.71875 299.425781 115.832031 C 300.367188 118.539062 300.882812 121.449219 300.878906 124.484375 L 300.800781 258.300781 C 300.796875 264.035156 298.960938 269.320312 295.84375 273.636719 C 292.722656 277.945312 288.320312 281.277344 283.203125 283.058594 C 280.496094 284.003906 277.589844 284.515625 274.554688 284.515625 L 102.914062 284.417969 C 97.179688 284.410156 91.890625 282.574219 87.578125 279.457031 C 83.265625 276.335938 79.9375 271.9375 78.152344 266.820312 C 77.210938 264.113281 76.695312 261.203125 76.699219 258.167969 L 76.773438 124.351562 L 74.847656 124.351562 L 72.917969 124.347656 L 72.839844 258.167969 C 72.839844 261.636719 73.425781 264.980469 74.511719 268.089844 C 76.558594 273.964844 80.371094 279.007812 85.3125 282.582031 C 90.257812 286.160156 96.347656 288.273438 102.910156 288.273438 L 274.554688 288.371094 C 278.027344 288.371094 281.367188 287.785156 284.472656 286.703125 C 290.351562 284.652344 295.390625 280.839844 298.96875 275.894531 C 302.542969 270.953125 304.65625 264.867188 304.65625 258.304688 L 304.738281 124.488281 C 304.742188 121.011719 304.152344 117.671875 303.066406 114.5625 C 301.019531 108.6875 297.207031 103.648438 292.261719 100.074219 C 287.320312 96.496094 281.234375 94.386719 274.667969 94.382812 L 103.023438 94.289062 C 99.546875 94.285156 96.203125 94.875 93.09375 95.957031 C 87.21875 98.007812 82.183594 101.820312 78.605469 106.761719 C 75.03125 111.699219 72.917969 117.789062 72.917969 124.347656 L 74.847656 124.351562 " fill-opacity="1" fill-rule="nonzero"/></g></g></g><g clip-path="url(#ccdef98e8c)"><g clip-path="url(#1b13cf1ada)"><g clip-path="url(#d8ebacb9e8)"><path fill="#004aad" d="M 74.835938 144.246094 L 74.839844 127.863281 C 74.859375 112.308594 87.46875 99.707031 103.019531 99.71875 L 274.664062 99.820312 C 290.214844 99.824219 302.816406 112.445312 302.804688 127.992188 L 302.800781 144.382812 L 74.835938 144.246094 " fill-opacity="1" fill-rule="nonzero"/></g></g></g><g clip-path="url(#68a95ce0ce)"><g clip-path="url(#e570d2d663)"><g clip-path="url(#1536fe9daf)"><path fill="#ffffff" d="M 74.835938 144.246094 L 76.765625 144.242188 L 76.773438 127.863281 C 76.78125 122.128906 78.617188 116.84375 81.734375 112.523438 C 84.855469 108.214844 89.253906 104.882812 94.367188 103.101562 C 97.074219 102.160156 99.984375 101.648438 103.015625 101.648438 L 103.019531 101.648438 L 274.664062 101.746094 C 280.398438 101.75 285.683594 103.585938 290 106.703125 C 294.3125 109.824219 297.640625 114.222656 299.425781 119.339844 C 300.367188 122.050781 300.878906 124.957031 300.875 127.992188 L 300.871094 142.453125 L 74.835938 142.3125 L 74.835938 144.246094 L 76.765625 144.242188 L 74.835938 144.246094 L 74.835938 146.171875 L 302.796875 146.308594 C 303.3125 146.308594 303.796875 146.109375 304.160156 145.746094 C 304.527344 145.382812 304.726562 144.894531 304.726562 144.382812 L 304.734375 127.992188 C 304.738281 124.523438 304.152344 121.179688 303.066406 118.070312 C 301.015625 112.195312 297.203125 107.15625 292.257812 103.578125 C 287.316406 100.003906 281.226562 97.894531 274.664062 97.890625 L 103.023438 97.792969 C 99.550781 97.785156 96.207031 98.375 93.097656 99.460938 C 87.222656 101.507812 82.1875 105.320312 78.609375 110.265625 C 75.035156 115.207031 72.917969 121.296875 72.914062 127.859375 L 72.90625 144.242188 C 72.90625 144.757812 73.105469 145.238281 73.46875 145.609375 C 73.835938 145.96875 74.316406 146.171875 74.835938 146.171875 L 74.835938 144.246094 " fill-opacity="1" fill-rule="nonzero"/></g></g></g><g clip-path="url(#c50a59d312)"><g clip-path="url(#3bb72c4b52)"><g clip-path="url(#3031e8e989)"><path fill="#004aad" d="M 74.839844 140.738281 L 74.847656 124.351562 C 74.855469 108.800781 87.46875 96.210938 103.019531 96.21875 L 274.667969 96.3125 C 290.21875 96.320312 302.816406 108.933594 302.808594 124.488281 L 302.796875 140.871094 L 74.839844 140.738281 " fill-opacity="1" fill-rule="nonzero"/></g></g></g><g clip-path="url(#c7bd5c1c6a)"><g clip-path="url(#be5e5b1099)"><g clip-path="url(#f2cc870bde)"><path fill="#ffffff" d="M 74.839844 140.738281 L 76.769531 140.734375 L 76.773438 124.351562 C 76.78125 118.617188 78.617188 113.332031 81.734375 109.019531 C 84.851562 104.710938 89.25 101.382812 94.363281 99.601562 C 97.070312 98.65625 99.980469 98.144531 103.019531 98.148438 L 274.667969 98.242188 C 280.402344 98.246094 285.6875 100.082031 290.003906 103.199219 C 294.3125 106.316406 297.644531 110.71875 299.425781 115.832031 C 300.367188 118.539062 300.882812 121.449219 300.878906 124.484375 L 300.867188 138.941406 L 74.839844 138.804688 L 74.839844 140.738281 L 76.769531 140.734375 L 74.839844 140.738281 L 74.839844 142.667969 L 302.792969 142.800781 C 303.859375 142.800781 304.726562 141.9375 304.726562 140.875 L 304.738281 124.488281 C 304.742188 121.011719 304.152344 117.671875 303.066406 114.5625 C 301.019531 108.6875 297.207031 103.648438 292.261719 100.074219 C 287.320312 96.496094 281.234375 94.386719 274.667969 94.382812 L 103.023438 94.289062 C 99.546875 94.285156 96.203125 94.875 93.09375 95.957031 C 87.21875 98.007812 82.183594 101.820312 78.605469 106.761719 C 75.03125 111.699219 72.917969 117.789062 72.917969 124.347656 L 72.910156 140.734375 C 72.910156 141.800781 73.773438 142.664062 74.839844 142.667969 L 74.839844 140.738281 " fill-opacity="1" fill-rule="nonzero"/></g></g></g><g clip-path="url(#83ce62d881)"><g clip-path="url(#6ce462f169)"><g clip-path="url(#d6cc3c2278)"><path fill="#004aad" d="M 266.816406 114.8125 C 266.8125 118.378906 269.699219 121.265625 273.257812 121.265625 C 276.816406 121.269531 279.707031 118.386719 279.710938 114.824219 L 279.726562 92.714844 C 279.730469 89.148438 276.839844 86.261719 273.273438 86.261719 C 269.71875 86.265625 266.832031 89.152344 266.828125 92.707031 L 266.816406 114.8125 " fill-opacity="1" fill-rule="nonzero"/></g></g></g><g clip-path="url(#fe753c6fd2)"><g clip-path="url(#4c3de386ef)"><g clip-path="url(#639a440834)"><path fill="#ffffff" d="M 266.816406 114.8125 L 264.882812 114.8125 C 264.882812 115.777344 265.050781 116.707031 265.351562 117.574219 C 265.921875 119.214844 266.980469 120.617188 268.355469 121.609375 C 269.730469 122.605469 271.433594 123.195312 273.257812 123.195312 C 274.222656 123.195312 275.15625 123.03125 276.019531 122.726562 C 277.65625 122.15625 279.058594 121.097656 280.054688 119.722656 C 281.050781 118.347656 281.640625 116.644531 281.640625 114.820312 L 281.652344 92.714844 L 281.65625 92.71875 C 281.65625 91.753906 281.492188 90.816406 281.191406 89.945312 C 280.617188 88.308594 279.554688 86.910156 278.179688 85.914062 C 276.804688 84.917969 275.097656 84.332031 273.277344 84.332031 C 272.316406 84.332031 271.386719 84.496094 270.523438 84.796875 C 268.882812 85.367188 267.484375 86.429688 266.488281 87.804688 C 265.492188 89.179688 264.902344 90.882812 264.902344 92.707031 L 264.882812 114.808594 L 264.882812 114.8125 L 268.742188 114.8125 L 268.757812 92.707031 C 268.757812 91.714844 269.074219 90.816406 269.613281 90.066406 C 270.152344 89.320312 270.917969 88.746094 271.792969 88.441406 C 272.257812 88.277344 272.753906 88.191406 273.277344 88.191406 C 274.273438 88.191406 275.175781 88.507812 275.917969 89.042969 C 276.664062 89.578125 277.242188 90.339844 277.546875 91.21875 C 277.707031 91.679688 277.796875 92.179688 277.796875 92.710938 L 277.792969 92.714844 L 277.78125 114.820312 C 277.78125 115.816406 277.464844 116.714844 276.929688 117.460938 C 276.390625 118.203125 275.632812 118.78125 274.753906 119.085938 C 274.285156 119.246094 273.785156 119.335938 273.257812 119.335938 C 272.265625 119.332031 271.363281 119.023438 270.617188 118.484375 C 269.875 117.945312 269.300781 117.183594 268.996094 116.304688 C 268.832031 115.835938 268.742188 115.339844 268.742188 114.8125 L 266.816406 114.8125 " fill-opacity="1" fill-rule="nonzero"/></g></g></g><g clip-path="url(#ad6c13bf5c)"><g clip-path="url(#8f1ad9f212)"><g clip-path="url(#0819ae44d8)"><path fill="#004aad" d="M 238.769531 114.796875 C 238.777344 118.363281 241.667969 121.246094 245.230469 121.25 C 248.78125 121.25 251.675781 118.367188 251.675781 114.804688 L 251.691406 92.695312 C 251.691406 89.140625 248.796875 86.246094 245.253906 86.25 C 241.683594 86.242188 238.792969 89.132812 238.785156 92.691406 L 238.769531 114.796875 " fill-opacity="1" fill-rule="nonzero"/></g></g></g><g clip-path="url(#5d30e402c1)"><g clip-path="url(#4c663b475c)"><g clip-path="url(#4f4e9d2e86)"><path fill="#ffffff" d="M 238.769531 114.796875 L 236.84375 114.796875 C 236.84375 115.757812 237.007812 116.6875 237.308594 117.550781 C 237.878906 119.195312 238.941406 120.59375 240.320312 121.59375 C 241.699219 122.585938 243.402344 123.175781 245.226562 123.179688 L 245.234375 123.179688 C 246.191406 123.179688 247.121094 123.015625 247.980469 122.714844 C 249.621094 122.144531 251.019531 121.085938 252.019531 119.707031 C 253.015625 118.332031 253.605469 116.628906 253.605469 114.804688 L 253.617188 92.695312 C 253.621094 91.738281 253.457031 90.804688 253.15625 89.941406 C 252.585938 88.300781 251.519531 86.898438 250.144531 85.902344 C 248.773438 84.910156 247.070312 84.316406 245.253906 84.316406 C 244.289062 84.316406 243.351562 84.480469 242.484375 84.78125 C 240.839844 85.355469 239.441406 86.417969 238.445312 87.792969 C 237.449219 89.164062 236.859375 90.867188 236.855469 92.6875 L 236.855469 92.691406 L 236.84375 114.796875 L 240.703125 114.796875 L 240.714844 92.691406 L 240.714844 92.695312 C 240.714844 91.703125 241.035156 90.800781 241.574219 90.054688 C 242.109375 89.308594 242.875 88.730469 243.753906 88.425781 C 244.21875 88.265625 244.71875 88.175781 245.25 88.175781 L 245.253906 88.175781 C 246.238281 88.179688 247.136719 88.492188 247.882812 89.027344 C 248.628906 89.566406 249.207031 90.332031 249.511719 91.210938 C 249.675781 91.675781 249.761719 92.171875 249.761719 92.695312 L 249.746094 114.800781 L 249.746094 114.804688 C 249.746094 115.796875 249.433594 116.699219 248.894531 117.441406 C 248.355469 118.1875 247.59375 118.765625 246.710938 119.070312 C 246.25 119.234375 245.75 119.320312 245.230469 119.320312 L 245.234375 119.320312 C 244.238281 119.316406 243.328125 119.003906 242.582031 118.464844 C 241.832031 117.925781 241.257812 117.160156 240.953125 116.28125 C 240.789062 115.816406 240.703125 115.320312 240.703125 114.792969 L 240.703125 114.796875 L 238.769531 114.796875 " fill-opacity="1" fill-rule="nonzero"/></g></g></g><g clip-path="url(#884c7eca77)"><g clip-path="url(#967f7e9779)"><g clip-path="url(#fd95ebb392)"><path fill="#004aad" d="M 210.746094 114.785156 C 210.742188 118.34375 213.625 121.230469 217.191406 121.234375 C 220.746094 121.238281 223.636719 118.351562 223.640625 114.789062 L 223.652344 92.683594 C 223.652344 89.125 220.765625 86.234375 217.210938 86.226562 C 213.644531 86.226562 210.757812 89.117188 210.757812 92.675781 L 210.746094 114.785156 " fill-opacity="1" fill-rule="nonzero"/></g></g></g><g clip-path="url(#dce2e72a2c)"><g clip-path="url(#8bf6ca3157)"><g clip-path="url(#55e660363a)"><path fill="#ffffff" d="M 210.746094 114.785156 L 208.816406 114.78125 C 208.816406 115.746094 208.980469 116.679688 209.28125 117.542969 C 209.851562 119.183594 210.914062 120.582031 212.289062 121.574219 C 213.664062 122.570312 215.363281 123.164062 217.183594 123.167969 L 217.195312 123.167969 C 218.152344 123.167969 219.082031 123.003906 219.941406 122.699219 C 221.582031 122.128906 222.984375 121.070312 223.980469 119.695312 C 224.976562 118.320312 225.570312 116.613281 225.570312 114.789062 L 225.578125 92.683594 C 225.582031 91.722656 225.417969 90.789062 225.117188 89.925781 C 224.542969 88.285156 223.484375 86.886719 222.109375 85.886719 C 220.738281 84.890625 219.035156 84.300781 217.214844 84.300781 C 216.25 84.296875 215.316406 84.460938 214.449219 84.761719 C 212.808594 85.332031 211.40625 86.398438 210.414062 87.773438 C 209.421875 89.148438 208.828125 90.851562 208.824219 92.671875 L 208.816406 114.78125 L 210.746094 114.785156 L 212.671875 114.785156 L 212.683594 92.675781 C 212.6875 91.683594 213.003906 90.78125 213.539062 90.035156 C 214.078125 89.289062 214.839844 88.710938 215.71875 88.40625 C 216.183594 88.246094 216.679688 88.15625 217.207031 88.15625 C 218.199219 88.160156 219.101562 88.476562 219.847656 89.011719 C 220.589844 89.550781 221.164062 90.316406 221.472656 91.195312 C 221.632812 91.660156 221.722656 92.15625 221.722656 92.683594 L 221.710938 114.785156 C 221.710938 115.78125 221.394531 116.683594 220.855469 117.429688 C 220.316406 118.175781 219.554688 118.753906 218.671875 119.058594 C 218.207031 119.21875 217.714844 119.308594 217.191406 119.308594 L 217.195312 119.308594 C 216.199219 119.304688 215.296875 118.988281 214.550781 118.449219 C 213.804688 117.914062 213.230469 117.152344 212.925781 116.273438 C 212.761719 115.8125 212.675781 115.3125 212.675781 114.789062 L 210.746094 114.785156 " fill-opacity="1" fill-rule="nonzero"/></g></g></g><g clip-path="url(#8e9051410f)"><g clip-path="url(#38b8540edc)"><g clip-path="url(#6130a02933)"><path fill="#004aad" d="M 182.710938 114.765625 C 182.710938 118.328125 185.585938 121.214844 189.152344 121.21875 C 192.710938 121.214844 195.601562 118.335938 195.597656 114.773438 L 195.617188 92.664062 C 195.621094 89.105469 192.730469 86.210938 189.167969 86.21875 C 185.613281 86.210938 182.722656 89.097656 182.71875 92.65625 L 182.710938 114.765625 " fill-opacity="1" fill-rule="nonzero"/></g></g></g><g clip-path="url(#87d1bd7c23)"><g clip-path="url(#1de59f3b5e)"><g clip-path="url(#fac472f4d4)"><path fill="#ffffff" d="M 182.710938 114.765625 L 180.78125 114.761719 C 180.777344 115.726562 180.945312 116.664062 181.246094 117.527344 C 181.816406 119.167969 182.875 120.566406 184.25 121.5625 C 185.625 122.554688 187.328125 123.144531 189.152344 123.144531 L 189.15625 123.144531 C 190.117188 123.144531 191.046875 122.984375 191.914062 122.679688 C 193.550781 122.105469 194.953125 121.046875 195.949219 119.671875 C 196.941406 118.296875 197.53125 116.59375 197.527344 114.773438 L 197.546875 92.667969 C 197.546875 91.707031 197.386719 90.769531 197.082031 89.90625 C 196.507812 88.261719 195.449219 86.863281 194.070312 85.871094 C 192.695312 84.875 190.992188 84.285156 189.164062 84.289062 L 189.175781 84.289062 C 188.210938 84.285156 187.273438 84.449219 186.40625 84.75 C 184.765625 85.324219 183.367188 86.382812 182.375 87.757812 C 181.378906 89.132812 180.792969 90.832031 180.789062 92.65625 L 180.78125 114.761719 L 184.636719 114.765625 L 184.648438 92.660156 C 184.648438 91.664062 184.964844 90.765625 185.503906 90.019531 C 186.039062 89.277344 186.800781 88.699219 187.675781 88.394531 C 188.140625 88.234375 188.636719 88.148438 189.164062 88.148438 L 189.171875 88.148438 C 190.164062 88.148438 191.066406 88.457031 191.8125 88.996094 C 192.558594 89.535156 193.132812 90.296875 193.441406 91.175781 C 193.601562 91.640625 193.6875 92.136719 193.6875 92.664062 L 193.667969 114.773438 L 193.667969 114.777344 C 193.671875 115.769531 193.359375 116.667969 192.820312 117.414062 C 192.285156 118.15625 191.523438 118.730469 190.644531 119.039062 C 190.179688 119.199219 189.679688 119.289062 189.152344 119.285156 L 189.15625 119.289062 C 188.160156 119.285156 187.257812 118.96875 186.511719 118.433594 C 185.769531 117.898438 185.195312 117.136719 184.890625 116.257812 C 184.726562 115.792969 184.640625 115.292969 184.636719 114.765625 L 182.710938 114.765625 " fill-opacity="1" fill-rule="nonzero"/></g></g></g><g clip-path="url(#4fe733f47d)"><g clip-path="url(#ad212d2a0c)"><g clip-path="url(#36d05104c0)"><path fill="#004aad" d="M 154.675781 114.746094 C 154.667969 118.308594 157.566406 121.195312 161.117188 121.199219 C 164.683594 121.199219 167.570312 118.320312 167.578125 114.757812 L 167.59375 92.648438 C 167.589844 89.089844 164.703125 86.203125 161.136719 86.199219 C 157.582031 86.199219 154.683594 89.085938 154.6875 92.644531 L 154.675781 114.746094 " fill-opacity="1" fill-rule="nonzero"/></g></g></g><g clip-path="url(#d426108ea1)"><g clip-path="url(#dc9a8fd449)"><g clip-path="url(#074f5817b1)"><path fill="#ffffff" d="M 154.675781 114.746094 L 152.75 114.742188 C 152.746094 115.707031 152.910156 116.640625 153.210938 117.507812 C 153.785156 119.148438 154.847656 120.546875 156.222656 121.542969 C 157.597656 122.535156 159.296875 123.128906 161.117188 123.128906 L 161.121094 123.128906 C 162.085938 123.128906 163.015625 122.960938 163.882812 122.660156 C 165.519531 122.089844 166.921875 121.03125 167.921875 119.65625 C 168.914062 118.28125 169.507812 116.582031 169.507812 114.757812 L 169.519531 92.652344 L 169.519531 92.648438 C 169.519531 91.691406 169.359375 90.757812 169.058594 89.890625 C 168.484375 88.253906 167.421875 86.851562 166.042969 85.855469 C 164.667969 84.859375 162.964844 84.269531 161.140625 84.269531 L 161.136719 84.269531 C 160.179688 84.269531 159.25 84.429688 158.382812 84.730469 C 156.746094 85.304688 155.34375 86.363281 154.347656 87.742188 C 153.347656 89.113281 152.757812 90.820312 152.757812 92.640625 L 152.746094 114.746094 L 152.75 114.742188 L 154.675781 114.746094 L 156.605469 114.746094 L 156.617188 92.644531 C 156.617188 91.652344 156.933594 90.75 157.46875 90.003906 C 158.011719 89.257812 158.773438 88.679688 159.652344 88.375 C 160.117188 88.210938 160.613281 88.125 161.136719 88.125 L 161.132812 88.125 C 162.128906 88.128906 163.035156 88.445312 163.785156 88.980469 C 164.53125 89.523438 165.109375 90.285156 165.414062 91.160156 C 165.574219 91.625 165.660156 92.121094 165.660156 92.648438 L 165.664062 92.648438 L 165.648438 114.757812 C 165.648438 115.746094 165.332031 116.648438 164.792969 117.390625 C 164.253906 118.136719 163.492188 118.710938 162.613281 119.015625 C 162.148438 119.179688 161.644531 119.269531 161.121094 119.269531 C 160.132812 119.269531 159.230469 118.953125 158.480469 118.414062 C 157.734375 117.875 157.160156 117.117188 156.855469 116.238281 C 156.691406 115.773438 156.605469 115.273438 156.605469 114.75 L 156.605469 114.746094 L 154.675781 114.746094 " fill-opacity="1" fill-rule="nonzero"/></g></g></g><g clip-path="url(#d0f6ff7f36)"><g clip-path="url(#d1007bfe24)"><g clip-path="url(#ee71548f77)"><path fill="#004aad" d="M 266.816406 113.484375 C 266.816406 117.046875 269.695312 119.933594 273.265625 119.9375 C 276.816406 119.9375 279.710938 117.050781 279.707031 113.492188 L 279.726562 91.390625 C 279.722656 87.824219 276.839844 84.9375 273.277344 84.933594 C 269.722656 84.929688 266.832031 87.824219 266.824219 91.378906 L 266.816406 113.484375 " fill-opacity="1" fill-rule="nonzero"/></g></g></g><g clip-path="url(#10c398ecbb)"><g clip-path="url(#331487f256)"><g clip-path="url(#44c56c7265)"><path fill="#ffffff" d="M 266.816406 113.484375 L 264.886719 113.484375 C 264.886719 114.449219 265.050781 115.382812 265.351562 116.25 C 265.921875 117.886719 266.984375 119.285156 268.359375 120.28125 C 269.734375 121.277344 271.4375 121.867188 273.265625 121.867188 C 274.226562 121.867188 275.15625 121.699219 276.019531 121.398438 C 277.65625 120.828125 279.058594 119.769531 280.054688 118.394531 C 281.046875 117.019531 281.640625 115.316406 281.636719 113.492188 L 281.640625 113.492188 L 281.65625 91.390625 L 281.652344 91.386719 C 281.652344 90.425781 281.492188 89.492188 281.1875 88.628906 C 280.617188 86.988281 279.554688 85.585938 278.179688 84.59375 C 276.804688 83.597656 275.101562 83.003906 273.28125 83.003906 C 272.316406 83.003906 271.386719 83.167969 270.519531 83.46875 C 268.882812 84.039062 267.484375 85.101562 266.488281 86.476562 C 265.492188 87.851562 264.898438 89.554688 264.894531 91.375 L 264.894531 91.378906 L 264.886719 113.484375 L 268.746094 113.484375 L 268.75 91.378906 L 268.753906 91.386719 C 268.753906 90.394531 269.070312 89.488281 269.609375 88.738281 C 270.152344 87.992188 270.914062 87.414062 271.789062 87.113281 C 272.253906 86.953125 272.75 86.863281 273.273438 86.863281 L 273.277344 86.863281 C 274.269531 86.863281 275.171875 87.179688 275.917969 87.71875 C 276.664062 88.253906 277.238281 89.019531 277.546875 89.898438 C 277.707031 90.367188 277.796875 90.863281 277.796875 91.390625 L 277.796875 91.386719 L 277.777344 113.492188 L 277.78125 113.496094 C 277.777344 114.484375 277.464844 115.386719 276.925781 116.132812 C 276.390625 116.878906 275.625 117.453125 274.75 117.757812 C 274.285156 117.917969 273.785156 118.007812 273.261719 118.007812 L 273.265625 118.007812 C 272.269531 118.007812 271.367188 117.691406 270.617188 117.15625 C 269.875 116.617188 269.300781 115.859375 268.996094 114.980469 C 268.832031 114.511719 268.746094 114.011719 268.746094 113.484375 L 266.816406 113.484375 " fill-opacity="1" fill-rule="nonzero"/></g></g></g><g clip-path="url(#e9cd97512e)"><g clip-path="url(#89bfad9f6b)"><g clip-path="url(#623470e4d0)"><path fill="#004aad" d="M 238.777344 113.46875 C 238.777344 117.03125 241.664062 119.917969 245.234375 119.917969 C 248.78125 119.921875 251.675781 117.042969 251.675781 113.472656 L 251.683594 91.371094 C 251.695312 87.8125 248.796875 84.917969 245.253906 84.917969 C 241.683594 84.914062 238.789062 87.804688 238.785156 91.363281 L 238.777344 113.46875 " fill-opacity="1" fill-rule="nonzero"/></g></g></g><g clip-path="url(#51f2b2f189)"><g clip-path="url(#6e42f66815)"><g clip-path="url(#900555c6fd)"><path fill="#ffffff" d="M 238.777344 113.46875 L 236.847656 113.464844 C 236.847656 114.429688 237.011719 115.363281 237.316406 116.222656 C 237.886719 117.867188 238.945312 119.269531 240.324219 120.261719 C 241.699219 121.257812 243.40625 121.847656 245.230469 121.847656 C 246.191406 121.847656 247.125 121.683594 247.988281 121.382812 C 249.625 120.808594 251.027344 119.75 252.023438 118.375 C 253.019531 117.003906 253.609375 115.296875 253.605469 113.472656 L 253.617188 91.371094 L 253.617188 91.378906 C 253.621094 90.414062 253.457031 89.476562 253.15625 88.609375 C 252.582031 86.96875 251.519531 85.566406 250.144531 84.574219 C 248.773438 83.578125 247.074219 82.988281 245.253906 82.984375 C 244.289062 82.988281 243.355469 83.148438 242.484375 83.453125 C 240.84375 84.023438 239.441406 85.085938 238.445312 86.460938 C 237.449219 87.835938 236.859375 89.535156 236.855469 91.355469 L 236.855469 91.363281 L 236.847656 113.464844 L 240.707031 113.46875 L 240.714844 91.363281 L 240.714844 91.367188 C 240.714844 90.375 241.035156 89.472656 241.570312 88.722656 C 242.113281 87.980469 242.875 87.402344 243.757812 87.097656 C 244.222656 86.933594 244.722656 86.847656 245.253906 86.847656 C 246.234375 86.847656 247.136719 87.160156 247.882812 87.699219 C 248.628906 88.238281 249.207031 89.003906 249.511719 89.878906 C 249.671875 90.34375 249.761719 90.84375 249.757812 91.367188 L 249.757812 91.375 L 249.746094 113.472656 C 249.746094 114.46875 249.433594 115.371094 248.894531 116.113281 C 248.359375 116.859375 247.597656 117.433594 246.71875 117.738281 C 246.253906 117.898438 245.757812 117.988281 245.230469 117.988281 C 244.238281 117.988281 243.332031 117.671875 242.582031 117.132812 C 241.835938 116.59375 241.261719 115.835938 240.957031 114.953125 C 240.796875 114.488281 240.707031 113.992188 240.707031 113.46875 L 238.777344 113.46875 " fill-opacity="1" fill-rule="nonzero"/></g></g></g><g clip-path="url(#3bb5802384)"><g clip-path="url(#3a51504a43)"><g clip-path="url(#afe09978ec)"><path fill="#004aad" d="M 210.746094 113.453125 C 210.742188 117.015625 213.625 119.902344 217.191406 119.90625 C 220.746094 119.90625 223.636719 117.015625 223.640625 113.457031 L 223.652344 91.359375 C 223.652344 87.792969 220.773438 84.902344 217.207031 84.902344 C 213.644531 84.902344 210.761719 87.785156 210.761719 91.351562 L 210.746094 113.453125 " fill-opacity="1" fill-rule="nonzero"/></g></g></g><g clip-path="url(#415a6a71c0)"><g clip-path="url(#fe658c49ab)"><g clip-path="url(#4ffd2d7134)"><path fill="#ffffff" d="M 210.746094 113.453125 L 208.816406 113.453125 C 208.816406 114.414062 208.980469 115.351562 209.28125 116.21875 C 209.851562 117.855469 210.914062 119.257812 212.289062 120.25 C 213.664062 121.242188 215.367188 121.832031 217.1875 121.832031 L 217.191406 121.832031 C 218.152344 121.832031 219.082031 121.667969 219.945312 121.367188 C 221.582031 120.796875 222.984375 119.738281 223.980469 118.363281 C 224.976562 116.988281 225.570312 115.28125 225.570312 113.460938 L 225.582031 91.359375 C 225.582031 90.394531 225.417969 89.457031 225.117188 88.59375 C 224.546875 86.953125 223.484375 85.550781 222.109375 84.554688 C 220.734375 83.558594 219.03125 82.96875 217.207031 82.972656 C 216.246094 82.972656 215.316406 83.136719 214.449219 83.4375 C 212.808594 84.007812 211.40625 85.070312 210.414062 86.445312 C 209.421875 87.820312 208.832031 89.527344 208.835938 91.351562 L 208.816406 113.453125 L 210.746094 113.453125 L 212.675781 113.457031 L 212.691406 91.355469 C 212.691406 90.351562 213.007812 89.449219 213.542969 88.703125 C 214.082031 87.960938 214.839844 87.386719 215.71875 87.082031 C 216.183594 86.917969 216.683594 86.832031 217.207031 86.828125 C 218.203125 86.832031 219.101562 87.144531 219.847656 87.679688 C 220.59375 88.21875 221.167969 88.984375 221.472656 89.863281 C 221.636719 90.328125 221.726562 90.828125 221.722656 91.355469 L 221.714844 113.457031 C 221.710938 114.449219 221.394531 115.347656 220.855469 116.097656 C 220.316406 116.84375 219.554688 117.417969 218.675781 117.726562 C 218.210938 117.886719 217.714844 117.976562 217.191406 117.972656 L 217.195312 117.976562 C 216.195312 117.972656 215.296875 117.65625 214.546875 117.125 C 213.804688 116.585938 213.230469 115.828125 212.925781 114.949219 C 212.761719 114.484375 212.675781 113.984375 212.675781 113.457031 L 210.746094 113.453125 " fill-opacity="1" fill-rule="nonzero"/></g></g></g><g clip-path="url(#61dd9558a3)"><g clip-path="url(#899d030934)"><g clip-path="url(#5e18c3fb0c)"><path fill="#004aad" d="M 182.710938 113.4375 C 182.703125 117 185.589844 119.886719 189.152344 119.890625 C 192.710938 119.890625 195.601562 117.007812 195.609375 113.441406 L 195.621094 91.335938 C 195.621094 87.773438 192.738281 84.882812 189.171875 84.886719 C 185.613281 84.882812 182.722656 87.765625 182.71875 91.332031 L 182.710938 113.4375 " fill-opacity="1" fill-rule="nonzero"/></g></g></g><g clip-path="url(#94b12e6088)"><g clip-path="url(#1dda76840e)"><g clip-path="url(#928b09b9af)"><path fill="#ffffff" d="M 182.710938 113.4375 L 180.777344 113.433594 C 180.777344 114.398438 180.941406 115.332031 181.242188 116.203125 C 181.8125 117.839844 182.878906 119.238281 184.25 120.234375 C 185.625 121.226562 187.328125 121.816406 189.152344 121.816406 C 190.117188 121.816406 191.046875 121.65625 191.917969 121.351562 C 193.554688 120.78125 194.953125 119.71875 195.949219 118.34375 C 196.945312 116.96875 197.535156 115.265625 197.539062 113.445312 L 197.535156 113.445312 L 197.546875 91.339844 C 197.546875 90.375 197.386719 89.441406 197.082031 88.574219 C 196.511719 86.933594 195.453125 85.535156 194.074219 84.539062 C 192.699219 83.542969 190.992188 82.953125 189.167969 82.957031 L 189.175781 82.957031 C 188.210938 82.953125 187.277344 83.117188 186.410156 83.421875 C 184.773438 83.992188 183.371094 85.054688 182.375 86.429688 C 181.382812 87.800781 180.792969 89.503906 180.789062 91.332031 L 180.777344 113.4375 L 184.636719 113.4375 L 184.648438 91.332031 C 184.648438 90.335938 184.964844 89.4375 185.503906 88.691406 C 186.039062 87.945312 186.800781 87.367188 187.679688 87.0625 C 188.144531 86.90625 188.640625 86.8125 189.167969 86.816406 L 189.171875 86.8125 C 190.167969 86.816406 191.070312 87.128906 191.816406 87.667969 C 192.558594 88.203125 193.132812 88.964844 193.4375 89.84375 C 193.601562 90.308594 193.691406 90.808594 193.6875 91.335938 L 193.675781 113.445312 L 193.679688 113.441406 C 193.675781 114.433594 193.359375 115.335938 192.820312 116.082031 C 192.285156 116.828125 191.523438 117.402344 190.648438 117.710938 C 190.179688 117.871094 189.679688 117.960938 189.152344 117.957031 C 188.160156 117.957031 187.257812 117.640625 186.511719 117.105469 C 185.765625 116.570312 185.191406 115.808594 184.886719 114.929688 C 184.722656 114.464844 184.636719 113.964844 184.636719 113.4375 L 182.710938 113.4375 " fill-opacity="1" fill-rule="nonzero"/></g></g></g><g clip-path="url(#9d688e9158)"><g clip-path="url(#7be8132964)"><g clip-path="url(#c5a8a33a62)"><path fill="#004aad" d="M 154.671875 113.421875 C 154.671875 116.984375 157.566406 119.867188 161.117188 119.875 C 164.679688 119.875 167.570312 116.992188 167.574219 113.429688 L 167.589844 91.324219 C 167.589844 87.761719 164.699219 84.875 161.144531 84.871094 C 157.585938 84.867188 154.691406 87.753906 154.6875 91.3125 L 154.671875 113.421875 " fill-opacity="1" fill-rule="nonzero"/></g></g></g><g clip-path="url(#ac280665f0)"><g clip-path="url(#57eb48f789)"><g clip-path="url(#c49c397288)"><path fill="#ffffff" d="M 154.671875 113.421875 L 152.746094 113.421875 C 152.746094 114.382812 152.90625 115.3125 153.210938 116.175781 C 153.78125 117.816406 154.84375 119.21875 156.21875 120.210938 C 157.589844 121.207031 159.292969 121.800781 161.113281 121.804688 L 161.117188 121.804688 C 162.082031 121.804688 163.015625 121.636719 163.878906 121.335938 C 165.519531 120.765625 166.921875 119.707031 167.917969 118.332031 C 168.914062 116.957031 169.503906 115.253906 169.507812 113.429688 L 169.519531 91.324219 C 169.519531 90.359375 169.355469 89.429688 169.054688 88.566406 C 168.484375 86.925781 167.421875 85.523438 166.042969 84.527344 C 164.671875 83.53125 162.96875 82.941406 161.148438 82.941406 C 160.183594 82.9375 159.25 83.101562 158.378906 83.402344 C 156.742188 83.972656 155.34375 85.035156 154.347656 86.410156 C 153.351562 87.785156 152.761719 89.488281 152.761719 91.308594 L 152.742188 113.417969 L 156.601562 113.425781 L 156.617188 91.3125 C 156.621094 90.324219 156.933594 89.421875 157.472656 88.675781 C 158.011719 87.929688 158.773438 87.351562 159.652344 87.046875 C 160.113281 86.886719 160.613281 86.796875 161.140625 86.800781 C 162.132812 86.800781 163.039062 87.113281 163.785156 87.652344 C 164.527344 88.191406 165.105469 88.957031 165.410156 89.835938 C 165.574219 90.296875 165.660156 90.796875 165.660156 91.320312 L 165.644531 113.425781 C 165.644531 114.421875 165.328125 115.320312 164.792969 116.066406 C 164.253906 116.8125 163.488281 117.386719 162.609375 117.695312 C 162.144531 117.855469 161.640625 117.945312 161.113281 117.945312 L 161.121094 117.945312 C 160.132812 117.945312 159.226562 117.628906 158.480469 117.085938 C 157.734375 116.546875 157.15625 115.785156 156.851562 114.90625 C 156.691406 114.441406 156.601562 113.945312 156.601562 113.421875 L 154.671875 113.421875 " fill-opacity="1" fill-rule="nonzero"/></g></g></g><g clip-path="url(#23c3204aef)"><g clip-path="url(#8e8a064b5a)"><g clip-path="url(#d909b9fa94)"><path fill="#004aad" d="M 125.722656 114.066406 C 125.726562 117.625 128.613281 120.515625 132.167969 120.519531 C 135.734375 120.519531 138.617188 117.636719 138.621094 114.074219 L 138.632812 91.972656 C 138.636719 88.410156 135.75 85.519531 132.191406 85.523438 C 128.628906 85.519531 125.742188 88.402344 125.742188 91.957031 L 125.722656 114.066406 " fill-opacity="1" fill-rule="nonzero"/></g></g></g><g clip-path="url(#bdd4b2f958)"><g clip-path="url(#8ce550cfd3)"><g clip-path="url(#a0be597c1e)"><path fill="#ffffff" d="M 125.722656 114.066406 L 123.792969 114.066406 C 123.792969 115.027344 123.957031 115.957031 124.257812 116.820312 C 124.832031 118.460938 125.890625 119.863281 127.265625 120.859375 C 128.640625 121.855469 130.34375 122.445312 132.164062 122.445312 C 133.128906 122.449219 134.0625 122.28125 134.933594 121.980469 C 136.570312 121.410156 137.972656 120.347656 138.964844 118.972656 C 139.960938 117.597656 140.550781 115.894531 140.550781 114.070312 L 140.566406 91.972656 C 140.566406 91.011719 140.402344 90.078125 140.097656 89.210938 C 139.527344 87.570312 138.46875 86.171875 137.09375 85.171875 C 135.71875 84.179688 134.015625 83.585938 132.1875 83.589844 L 132.191406 83.589844 C 131.226562 83.589844 130.296875 83.753906 129.429688 84.054688 C 127.789062 84.625 126.390625 85.683594 125.394531 87.058594 C 124.402344 88.433594 123.8125 90.132812 123.8125 91.957031 L 123.792969 114.0625 L 123.792969 114.066406 L 127.652344 114.066406 L 127.671875 91.960938 C 127.671875 90.964844 127.984375 90.066406 128.523438 89.320312 C 129.058594 88.578125 129.820312 88.003906 130.699219 87.699219 C 131.164062 87.535156 131.664062 87.449219 132.191406 87.449219 C 133.183594 87.449219 134.085938 87.765625 134.832031 88.300781 C 135.578125 88.839844 136.152344 89.601562 136.457031 90.480469 C 136.617188 90.949219 136.707031 91.445312 136.707031 91.972656 L 136.691406 114.070312 C 136.691406 115.066406 136.378906 115.964844 135.839844 116.710938 C 135.304688 117.457031 134.542969 118.03125 133.664062 118.335938 C 133.195312 118.5 132.699219 118.589844 132.167969 118.589844 C 131.175781 118.585938 130.277344 118.273438 129.53125 117.734375 C 128.785156 117.195312 128.210938 116.433594 127.902344 115.550781 C 127.742188 115.085938 127.648438 114.585938 127.648438 114.0625 L 127.652344 114.066406 L 125.722656 114.066406 " fill-opacity="1" fill-rule="nonzero"/></g></g></g><g clip-path="url(#355e350106)"><g clip-path="url(#b882f4dcf2)"><g clip-path="url(#2a9166a0a8)"><path fill="#004aad" d="M 97.695312 114.050781 C 97.691406 117.617188 100.574219 120.503906 104.136719 120.503906 C 107.695312 120.496094 110.585938 117.621094 110.582031 114.0625 L 110.601562 91.949219 C 110.605469 88.394531 107.722656 85.5 104.15625 85.503906 C 100.597656 85.5 97.710938 88.382812 97.707031 91.941406 L 97.695312 114.050781 " fill-opacity="1" fill-rule="nonzero"/></g></g></g><g clip-path="url(#d30f250793)"><g clip-path="url(#64b027597b)"><g clip-path="url(#6733594705)"><path fill="#ffffff" d="M 97.695312 114.050781 L 95.761719 114.050781 C 95.761719 115.015625 95.925781 115.949219 96.230469 116.816406 C 96.800781 118.457031 97.859375 119.855469 99.238281 120.851562 C 100.613281 121.84375 102.3125 122.429688 104.132812 122.433594 L 104.136719 122.433594 C 105.097656 122.429688 106.03125 122.265625 106.894531 121.964844 C 108.53125 121.394531 109.933594 120.332031 110.929688 118.957031 C 111.925781 117.582031 112.515625 115.882812 112.511719 114.058594 L 112.511719 114.0625 L 112.53125 91.949219 C 112.53125 90.988281 112.367188 90.054688 112.066406 89.191406 C 111.496094 87.550781 110.4375 86.152344 109.0625 85.15625 C 107.6875 84.160156 105.980469 83.570312 104.152344 83.570312 L 104.15625 83.574219 C 103.195312 83.570312 102.261719 83.738281 101.394531 84.039062 C 99.757812 84.609375 98.355469 85.667969 97.359375 87.042969 C 96.367188 88.414062 95.777344 90.117188 95.777344 91.941406 L 95.765625 114.050781 L 95.761719 114.050781 L 97.695312 114.050781 L 99.625 114.054688 L 99.632812 91.945312 C 99.636719 90.949219 99.949219 90.046875 100.488281 89.304688 C 101.027344 88.558594 101.789062 87.984375 102.664062 87.683594 C 103.128906 87.519531 103.628906 87.429688 104.15625 87.429688 C 105.152344 87.429688 106.054688 87.746094 106.800781 88.285156 C 107.542969 88.820312 108.117188 89.582031 108.421875 90.460938 C 108.585938 90.925781 108.671875 91.421875 108.671875 91.945312 L 108.65625 114.058594 L 108.65625 114.0625 C 108.652344 115.054688 108.339844 115.953125 107.804688 116.695312 C 107.265625 117.441406 106.503906 118.015625 105.621094 118.320312 C 105.160156 118.484375 104.660156 118.574219 104.132812 118.574219 L 104.136719 118.574219 C 103.144531 118.574219 102.242188 118.257812 101.496094 117.71875 C 100.753906 117.183594 100.179688 116.421875 99.875 115.546875 C 99.710938 115.082031 99.621094 114.582031 99.625 114.054688 L 97.695312 114.050781 " fill-opacity="1" fill-rule="nonzero"/></g></g></g><g clip-path="url(#6fe359a3c2)"><g clip-path="url(#ab04aef17c)"><g clip-path="url(#e5879cf72a)"><path fill="#004aad" d="M 125.726562 112.746094 C 125.722656 116.300781 128.609375 119.1875 132.171875 119.199219 C 135.734375 119.199219 138.625 116.308594 138.621094 112.753906 L 138.632812 90.640625 C 138.636719 87.082031 135.753906 84.1875 132.191406 84.191406 C 128.628906 84.1875 125.742188 87.070312 125.742188 90.636719 L 125.726562 112.746094 " fill-opacity="1" fill-rule="nonzero"/></g></g></g><g clip-path="url(#40433bb703)"><g clip-path="url(#6a4dc6a2c2)"><g clip-path="url(#59420f4ffe)"><path fill="#ffffff" d="M 125.726562 112.746094 L 123.796875 112.746094 C 123.796875 113.707031 123.957031 114.636719 124.261719 115.503906 C 124.832031 117.144531 125.894531 118.542969 127.269531 119.539062 C 128.644531 120.53125 130.34375 121.121094 132.164062 121.128906 L 132.175781 121.128906 C 133.132812 121.125 134.0625 120.960938 134.929688 120.660156 C 136.570312 120.089844 137.972656 119.027344 138.964844 117.648438 C 139.964844 116.273438 140.550781 114.574219 140.550781 112.75 L 140.5625 90.640625 C 140.5625 89.675781 140.402344 88.742188 140.097656 87.875 C 139.527344 86.234375 138.46875 84.835938 137.089844 83.839844 C 135.71875 82.847656 134.011719 82.257812 132.1875 82.261719 L 132.195312 82.257812 C 131.230469 82.257812 130.296875 82.421875 129.429688 82.722656 C 127.792969 83.292969 126.390625 84.355469 125.394531 85.730469 C 124.402344 87.105469 123.8125 88.808594 123.8125 90.632812 L 123.796875 112.746094 L 127.652344 112.746094 L 127.667969 90.636719 C 127.671875 89.640625 127.988281 88.734375 128.523438 87.992188 C 129.0625 87.246094 129.820312 86.671875 130.699219 86.367188 C 131.164062 86.207031 131.664062 86.117188 132.1875 86.117188 L 132.191406 86.117188 C 133.183594 86.117188 134.085938 86.433594 134.832031 86.96875 C 135.574219 87.507812 136.148438 88.265625 136.453125 89.144531 C 136.617188 89.605469 136.703125 90.105469 136.703125 90.636719 L 136.703125 90.640625 L 136.691406 112.746094 L 136.691406 112.75 C 136.691406 113.738281 136.378906 114.640625 135.839844 115.390625 C 135.300781 116.132812 134.539062 116.710938 133.660156 117.015625 C 133.191406 117.179688 132.695312 117.269531 132.167969 117.265625 L 132.175781 117.269531 C 131.183594 117.261719 130.277344 116.949219 129.53125 116.410156 C 128.785156 115.871094 128.210938 115.109375 127.902344 114.234375 C 127.742188 113.769531 127.65625 113.273438 127.652344 112.746094 L 125.726562 112.746094 " fill-opacity="1" fill-rule="nonzero"/></g></g></g><g clip-path="url(#95de607021)"><g clip-path="url(#0bd6efe163)"><g clip-path="url(#7685c36b3f)"><path fill="#004aad" d="M 97.691406 112.730469 C 97.6875 116.285156 100.582031 119.179688 104.140625 119.175781 C 107.703125 119.175781 110.582031 116.296875 110.582031 112.734375 L 110.601562 90.628906 C 110.601562 87.0625 107.726562 84.171875 104.160156 84.171875 C 100.605469 84.175781 97.707031 87.0625 97.707031 90.621094 L 97.691406 112.730469 " fill-opacity="1" fill-rule="nonzero"/></g></g></g><g clip-path="url(#e12402f632)"><g clip-path="url(#959fcc4340)"><g clip-path="url(#d85eeb1fe4)"><path fill="#ffffff" d="M 97.691406 112.730469 L 95.761719 112.726562 C 95.761719 113.6875 95.925781 114.621094 96.226562 115.484375 C 96.800781 117.121094 97.859375 118.523438 99.238281 119.519531 C 100.609375 120.515625 102.3125 121.105469 104.136719 121.105469 C 105.101562 121.105469 106.035156 120.941406 106.898438 120.640625 C 108.535156 120.066406 109.9375 119.007812 110.929688 117.628906 C 111.925781 116.257812 112.515625 114.554688 112.511719 112.730469 L 112.511719 112.734375 L 112.53125 90.632812 C 112.53125 89.664062 112.367188 88.726562 112.0625 87.855469 C 111.492188 86.21875 110.433594 84.816406 109.058594 83.820312 C 107.683594 82.828125 105.980469 82.238281 104.160156 82.238281 L 104.15625 82.238281 C 103.199219 82.242188 102.269531 82.402344 101.40625 82.703125 C 99.769531 83.277344 98.367188 84.335938 97.367188 85.714844 C 96.371094 87.089844 95.777344 88.796875 95.78125 90.625 L 95.78125 90.621094 L 95.761719 112.726562 L 99.621094 112.730469 L 99.640625 90.621094 C 99.640625 89.625 99.953125 88.722656 100.492188 87.976562 C 101.03125 87.230469 101.796875 86.652344 102.675781 86.347656 C 103.140625 86.183594 103.636719 86.097656 104.160156 86.097656 L 104.15625 86.097656 C 105.152344 86.097656 106.054688 86.414062 106.796875 86.949219 C 107.539062 87.488281 108.113281 88.246094 108.421875 89.125 C 108.582031 89.59375 108.671875 90.097656 108.671875 90.625 L 108.65625 112.730469 L 108.652344 112.734375 C 108.652344 113.726562 108.339844 114.628906 107.804688 115.371094 C 107.269531 116.117188 106.507812 116.691406 105.628906 117 C 105.164062 117.15625 104.664062 117.25 104.136719 117.246094 L 104.136719 117.25 C 103.148438 117.246094 102.246094 116.933594 101.496094 116.394531 C 100.75 115.855469 100.175781 115.089844 99.867188 114.214844 C 99.710938 113.75 99.621094 113.253906 99.621094 112.730469 L 97.691406 112.730469 " fill-opacity="1" fill-rule="nonzero"/></g></g></g><path fill="#38b6ff" d="M 239.597656 260.65625 L 210.621094 235.296875 C 205.363281 230.671875 197.46875 237.039062 200.980469 243.191406 L 227.988281 290.300781 C 232.308594 298.125 243.769531 299.316406 249.5625 292.453125 L 250.472656 291.414062 L 345.5625 182.902344 C 347.425781 180.785156 347.472656 177.5625 345.5625 175.382812 C 343.488281 173.015625 339.882812 172.777344 337.511719 174.851562 Z M 239.597656 260.65625 " fill-opacity="1" fill-rule="nonzero"/><g transform="matrix(1, 0, 0, 1, 119, 168)"><g clip-path="url(#5c0257c64f)"><g clip-path="url(#1773b3326c)"><g><g clip-path="url(#a4ab9f2aea)"><g clip-path="url(#a90c6ef341)"><g fill="#ffffff" fill-opacity="1"><g transform="translate(0.394914, 36.271142)"><g><path d="M 0.03125 0 L 8.59375 -24.234375 L 19.328125 -24.234375 L 27.84375 0 L 17.65625 0 L 16.828125 -2.734375 L 10.9375 -2.734375 L 10.109375 0 Z M 12.21875 -8.59375 L 15.578125 -8.59375 L 14.0625 -14.40625 L 13.75 -14.40625 Z M 12.21875 -8.59375 "/></g></g></g></g><g fill="#ffffff" fill-opacity="1"><g transform="translate(25.107456, 36.271142)"><g><path d="M 12.21875 8.546875 C 8.945312 8.546875 6.347656 7.867188 4.421875 6.515625 C 2.492188 5.171875 1.503906 3.273438 1.453125 0.828125 L 10.078125 0.828125 C 10.210938 1.753906 10.90625 2.21875 12.15625 2.21875 C 13.582031 2.21875 14.296875 1.488281 14.296875 0.03125 L 14.296875 -1.484375 C 12.929688 -0.773438 11.375 -0.421875 9.625 -0.421875 C 7.84375 -0.421875 6.269531 -0.804688 4.90625 -1.578125 C 3.550781 -2.347656 2.492188 -3.4375 1.734375 -4.84375 C 0.972656 -6.25 0.59375 -7.878906 0.59375 -9.734375 C 0.59375 -11.597656 0.972656 -13.226562 1.734375 -14.625 C 2.492188 -16.019531 3.550781 -17.101562 4.90625 -17.875 C 6.269531 -18.65625 7.84375 -19.046875 9.625 -19.046875 C 10.914062 -19.046875 12.101562 -18.84375 13.1875 -18.4375 C 14.269531 -18.03125 15.207031 -17.457031 16 -16.71875 L 16.71875 -18.59375 L 23.296875 -18.59375 L 23.296875 -1.078125 C 23.296875 2.160156 22.300781 4.570312 20.3125 6.15625 C 18.332031 7.75 15.632812 8.546875 12.21875 8.546875 Z M 9.515625 -9.625 C 9.515625 -8.9375 9.734375 -8.378906 10.171875 -7.953125 C 10.617188 -7.523438 11.175781 -7.3125 11.84375 -7.3125 C 12.53125 -7.3125 13.085938 -7.523438 13.515625 -7.953125 C 13.941406 -8.378906 14.15625 -8.9375 14.15625 -9.625 C 14.15625 -10.34375 13.941406 -10.914062 13.515625 -11.34375 C 13.085938 -11.769531 12.53125 -11.984375 11.84375 -11.984375 C 11.175781 -11.984375 10.617188 -11.769531 10.171875 -11.34375 C 9.734375 -10.914062 9.515625 -10.34375 9.515625 -9.625 Z M 9.515625 -9.625 "/></g></g></g><g fill="#ffffff" fill-opacity="1"><g transform="translate(47.535713, 36.271142)"><g><path d="M 11.53125 0.484375 C 9.363281 0.484375 7.457031 0.078125 5.8125 -0.734375 C 4.175781 -1.554688 2.894531 -2.703125 1.96875 -4.171875 C 1.050781 -5.640625 0.59375 -7.34375 0.59375 -9.28125 C 0.59375 -11.21875 1.054688 -12.925781 1.984375 -14.40625 C 2.921875 -15.882812 4.222656 -17.03125 5.890625 -17.84375 C 7.566406 -18.664062 9.503906 -19.078125 11.703125 -19.078125 C 14.097656 -19.078125 16.140625 -18.601562 17.828125 -17.65625 C 19.515625 -16.707031 20.785156 -15.375 21.640625 -13.65625 C 22.492188 -11.9375 22.851562 -9.910156 22.71875 -7.578125 L 9.3125 -7.578125 C 9.476562 -6.835938 9.789062 -6.300781 10.25 -5.96875 C 10.707031 -5.632812 11.257812 -5.46875 11.90625 -5.46875 C 12.875 -5.46875 13.578125 -5.742188 14.015625 -6.296875 L 22.46875 -6.296875 C 21.78125 -4.128906 20.476562 -2.457031 18.5625 -1.28125 C 16.644531 -0.101562 14.300781 0.484375 11.53125 0.484375 Z M 9.34375 -11.15625 L 14.234375 -11.15625 C 13.953125 -12.46875 13.15625 -13.125 11.84375 -13.125 C 11.21875 -13.125 10.6875 -12.96875 10.25 -12.65625 C 9.8125 -12.34375 9.507812 -11.84375 9.34375 -11.15625 Z M 9.34375 -11.15625 "/></g></g></g><g fill="#ffffff" fill-opacity="1"><g transform="translate(68.440999, 36.271142)"><g><path d="M 1.5625 0 L 1.5625 -18.59375 L 8.109375 -18.59375 L 8.9375 -16.515625 C 10.53125 -18.222656 12.640625 -19.078125 15.265625 -19.078125 C 17.691406 -19.078125 19.597656 -18.378906 20.984375 -16.984375 C 22.367188 -15.585938 23.0625 -13.65625 23.0625 -11.1875 L 23.0625 0 L 13.84375 0 L 13.84375 -9.90625 C 13.84375 -11.195312 13.335938 -11.84375 12.328125 -11.84375 C 11.285156 -11.84375 10.765625 -11.171875 10.765625 -9.828125 L 10.765625 0 Z M 1.5625 0 "/></g></g></g><g fill="#ffffff" fill-opacity="1"><g transform="translate(90.38468, 36.271142)"><g><path d="M 9.90625 0.484375 C 8.050781 0.484375 6.421875 0.078125 5.015625 -0.734375 C 3.609375 -1.554688 2.519531 -2.703125 1.75 -4.171875 C 0.976562 -5.640625 0.59375 -7.34375 0.59375 -9.28125 C 0.59375 -11.238281 0.976562 -12.941406 1.75 -14.390625 C 2.519531 -15.847656 3.609375 -16.988281 5.015625 -17.8125 C 6.421875 -18.632812 8.050781 -19.046875 9.90625 -19.046875 C 10.707031 -19.046875 11.472656 -18.960938 12.203125 -18.796875 C 12.929688 -18.640625 13.617188 -18.398438 14.265625 -18.078125 L 14.265625 -25.625 L 23.46875 -25.625 L 23.46875 0 L 16.9375 0 L 16.203125 -1.796875 C 15.421875 -1.085938 14.5 -0.53125 13.4375 -0.125 C 12.375 0.28125 11.195312 0.484375 9.90625 0.484375 Z M 9.515625 -9.28125 C 9.515625 -8.539062 9.738281 -7.945312 10.1875 -7.5 C 10.644531 -7.050781 11.234375 -6.828125 11.953125 -6.828125 C 12.679688 -6.828125 13.269531 -7.050781 13.71875 -7.5 C 14.175781 -7.945312 14.40625 -8.539062 14.40625 -9.28125 C 14.40625 -10.019531 14.175781 -10.617188 13.71875 -11.078125 C 13.269531 -11.535156 12.679688 -11.765625 11.953125 -11.765625 C 11.234375 -11.765625 10.644531 -11.535156 10.1875 -11.078125 C 9.738281 -10.617188 9.515625 -10.019531 9.515625 -9.28125 Z M 9.515625 -9.28125 "/></g></g></g><g fill="#ffffff" fill-opacity="1"><g transform="translate(112.986008, 36.271142)"><g><path d="M 7.828125 0.453125 C 5.609375 0.453125 3.878906 -0.0507812 2.640625 -1.0625 C 1.410156 -2.082031 0.796875 -3.484375 0.796875 -5.265625 C 0.796875 -6.972656 1.363281 -8.335938 2.5 -9.359375 C 3.644531 -10.390625 5.203125 -10.90625 7.171875 -10.90625 L 12.84375 -10.90625 L 12.84375 -12.015625 C 12.84375 -12.410156 12.710938 -12.726562 12.453125 -12.96875 C 12.203125 -13.207031 11.867188 -13.328125 11.453125 -13.328125 C 11.066406 -13.328125 10.742188 -13.210938 10.484375 -12.984375 C 10.234375 -12.753906 10.097656 -12.441406 10.078125 -12.046875 L 1.703125 -12.046875 C 2.367188 -16.734375 5.65625 -19.078125 11.5625 -19.078125 C 14.90625 -19.078125 17.4375 -18.328125 19.15625 -16.828125 C 20.882812 -15.328125 21.75 -13.113281 21.75 -10.1875 L 21.75 0 L 15.171875 0 L 14.375 -2.078125 C 12.78125 -0.390625 10.597656 0.453125 7.828125 0.453125 Z M 9.34375 -6.125 C 9.34375 -5.757812 9.488281 -5.46875 9.78125 -5.25 C 10.070312 -5.03125 10.457031 -4.921875 10.9375 -4.921875 C 11.5625 -4.921875 12.054688 -5.09375 12.421875 -5.4375 C 12.796875 -5.78125 12.984375 -6.265625 12.984375 -6.890625 L 12.984375 -7.34375 L 10.9375 -7.34375 C 10.457031 -7.34375 10.070312 -7.238281 9.78125 -7.03125 C 9.488281 -6.820312 9.34375 -6.519531 9.34375 -6.125 Z M 9.34375 -6.125 "/></g></g></g></g></g></g><g clip-path="url(#ad811c0b3f)"><path fill="#38b6ff" d="M 101.117188 39.105469 L 134.800781 39.105469 L 134.800781 53.007812 L 101.117188 53.007812 L 101.117188 39.105469 " fill-opacity="1" fill-rule="nonzero"/></g><g fill="#ffffff" fill-opacity="1"><g transform="translate(101.118392, 49.307888)"><g><path d="M 3.890625 0.140625 C 3.210938 0.140625 2.609375 -0.0078125 2.078125 -0.3125 C 1.554688 -0.613281 1.144531 -1.023438 0.84375 -1.546875 C 0.550781 -2.066406 0.40625 -2.671875 0.40625 -3.359375 C 0.40625 -4.046875 0.550781 -4.648438 0.84375 -5.171875 C 1.144531 -5.691406 1.554688 -6.097656 2.078125 -6.390625 C 2.597656 -6.691406 3.195312 -6.84375 3.875 -6.84375 C 4.445312 -6.84375 4.96875 -6.734375 5.4375 -6.515625 C 5.914062 -6.304688 6.316406 -6.003906 6.640625 -5.609375 C 6.960938 -5.210938 7.1875 -4.742188 7.3125 -4.203125 L 5.734375 -4.203125 C 5.609375 -4.578125 5.378906 -4.867188 5.046875 -5.078125 C 4.722656 -5.296875 4.347656 -5.40625 3.921875 -5.40625 C 3.546875 -5.40625 3.207031 -5.316406 2.90625 -5.140625 C 2.613281 -4.972656 2.382812 -4.734375 2.21875 -4.421875 C 2.050781 -4.117188 1.96875 -3.765625 1.96875 -3.359375 C 1.96875 -2.953125 2.050781 -2.59375 2.21875 -2.28125 C 2.382812 -1.976562 2.613281 -1.738281 2.90625 -1.5625 C 3.195312 -1.394531 3.535156 -1.3125 3.921875 -1.3125 C 4.359375 -1.3125 4.742188 -1.425781 5.078125 -1.65625 C 5.410156 -1.882812 5.644531 -2.191406 5.78125 -2.578125 L 7.359375 -2.578125 C 7.242188 -2.023438 7.023438 -1.546875 6.703125 -1.140625 C 6.378906 -0.734375 5.972656 -0.414062 5.484375 -0.1875 C 5.003906 0.03125 4.472656 0.140625 3.890625 0.140625 Z M 3.890625 0.140625 "/></g></g></g><g fill="#ffffff" fill-opacity="1"><g transform="translate(108.862075, 49.307888)"><g><path d="M 0.8125 0 L 0.8125 -6.71875 L 5.21875 -6.71875 L 5.21875 -5.4375 L 2.328125 -5.4375 L 2.328125 -4.03125 L 4.953125 -4.03125 L 4.953125 -2.765625 L 2.328125 -2.765625 L 2.328125 -1.296875 L 5.328125 -1.296875 L 5.328125 0 Z M 0.8125 0 "/></g></g></g><g fill="#ffffff" fill-opacity="1"><g transform="translate(114.677034, 49.307888)"><g><path d="M 0.8125 0 L 0.8125 -6.71875 L 3.671875 -6.71875 C 4.179688 -6.71875 4.625 -6.625 5 -6.4375 C 5.382812 -6.25 5.675781 -5.984375 5.875 -5.640625 C 6.082031 -5.296875 6.1875 -4.882812 6.1875 -4.40625 C 6.1875 -3.914062 6.070312 -3.488281 5.84375 -3.125 C 5.625 -2.769531 5.3125 -2.503906 4.90625 -2.328125 L 6.296875 0 L 4.53125 0 L 3.34375 -2.09375 L 2.328125 -2.09375 L 2.328125 0 Z M 2.3125 -3.375 L 3.46875 -3.375 C 3.84375 -3.375 4.128906 -3.460938 4.328125 -3.640625 C 4.535156 -3.816406 4.640625 -4.066406 4.640625 -4.390625 C 4.640625 -4.722656 4.535156 -4.972656 4.328125 -5.140625 C 4.128906 -5.316406 3.84375 -5.40625 3.46875 -5.40625 L 2.3125 -5.40625 Z M 2.3125 -3.375 "/></g></g></g><g fill="#ffffff" fill-opacity="1"><g transform="translate(121.432365, 49.307888)"><g><path d="M 2.421875 0 L 2.421875 -5.28125 L 0.28125 -5.28125 L 0.28125 -6.71875 L 6.078125 -6.71875 L 6.078125 -5.28125 L 3.9375 -5.28125 L 3.9375 0 Z M 2.421875 0 "/></g></g></g><g fill="#ffffff" fill-opacity="1"><g transform="translate(127.794276, 49.307888)"><g><path d="M 0.09375 0 L 2.75 -6.71875 L 4.25 -6.71875 L 6.921875 0 L 5.28125 0 L 4.828125 -1.15625 L 2.171875 -1.15625 L 1.71875 0 Z M 2.5625 -2.359375 L 4.453125 -2.359375 L 3.5 -4.8125 Z M 2.5625 -2.359375 "/></g></g></g></g></g></svg>